<svg width="120" height="25" viewBox="0 0 120 25" fill="none" xmlns="http://www.w3.org/2000/svg">
<g clip-path="url(#clip0_3058_6276)">
<path fill-rule="evenodd" clip-rule="evenodd" d="M8.68533 25H19.405L24.9863 19.3741L25.0014 0H0.256104V24.9632H5.86334V5.66054H19.3942V19.3741H8.68533V25ZM119.745 14.4309V10.5648H115.117V5.92276H111.262V10.5648H106.634V14.4309H111.262V19.0729H115.117V14.4309H119.745ZM67.3615 19.372H56.7239V24.9827H67.3615V19.372ZM70.2029 0.0108356V24.9827L75.795 19.372V0.0108356H70.2029ZM103.998 0.0108356V24.9805H87.7097V19.3698H98.3753V5.65187H84.8986V24.9805H79.2741V0.0108356H103.998ZM53.2191 24.9805V0.0108356H28.4954V24.9805H34.1178V5.65187H47.5946V19.3698H36.929V24.9805H53.2191Z" fill="white"/>
</g>
<defs>
<clipPath id="clip0_3058_6276">
<rect width="119.489" height="25" fill="white" transform="translate(0.256104)"/>
</clipPath>
</defs>
</svg>
