<svg width="14" height="14" viewBox="0 0 14 14" fill="none" xmlns="http://www.w3.org/2000/svg">
<path d="M7.00016 4.99998C6.46973 4.99998 5.96102 5.21069 5.58595 5.58577C5.21088 5.96084 5.00016 6.46955 5.00016 6.99998C5.00016 7.53041 5.21088 8.03912 5.58595 8.41419C5.96102 8.78927 6.46973 8.99998 7.00016 8.99998C7.5306 8.99998 8.0393 8.78927 8.41438 8.41419C8.78945 8.03912 9.00016 7.53041 9.00016 6.99998C9.00016 6.46955 8.78945 5.96084 8.41438 5.58577C8.0393 5.21069 7.5306 4.99998 7.00016 4.99998ZM7.00016 3.66665C7.88422 3.66665 8.73206 4.01784 9.35719 4.64296C9.98231 5.26808 10.3335 6.11592 10.3335 6.99998C10.3335 7.88403 9.98231 8.73188 9.35719 9.357C8.73206 9.98212 7.88422 10.3333 7.00016 10.3333C6.11611 10.3333 5.26826 9.98212 4.64314 9.357C4.01802 8.73188 3.66683 7.88403 3.66683 6.99998C3.66683 6.11592 4.01802 5.26808 4.64314 4.64296C5.26826 4.01784 6.11611 3.66665 7.00016 3.66665ZM11.3335 3.49998C11.3335 3.72099 11.2457 3.93296 11.0894 4.08924C10.9331 4.24552 10.7212 4.33331 10.5002 4.33331C10.2791 4.33331 10.0672 4.24552 9.91091 4.08924C9.75463 3.93296 9.66683 3.72099 9.66683 3.49998C9.66683 3.27897 9.75463 3.067 9.91091 2.91072C10.0672 2.75444 10.2791 2.66665 10.5002 2.66665C10.7212 2.66665 10.9331 2.75444 11.0894 2.91072C11.2457 3.067 11.3335 3.27897 11.3335 3.49998ZM7.00016 1.66665C5.35083 1.66665 5.0815 1.67131 4.31416 1.70531C3.7915 1.72998 3.44083 1.79998 3.1155 1.92665C2.82616 2.03865 2.6175 2.17265 2.3955 2.39531C2.18683 2.59691 2.0264 2.84304 1.92616 3.11531C1.7995 3.44198 1.7295 3.79198 1.7055 4.31398C1.67083 5.04998 1.66683 5.30731 1.66683 6.99998C1.66683 8.64931 1.6715 8.91865 1.7055 9.68598C1.73016 10.208 1.80016 10.5593 1.92616 10.884C2.0395 11.174 2.17283 11.3826 2.39416 11.604C2.61883 11.828 2.8275 11.962 3.11416 12.0726C3.4435 12.2 3.79416 12.2706 4.31416 12.2946C5.05016 12.3293 5.3075 12.3333 7.00016 12.3333C8.6495 12.3333 8.91883 12.3286 9.68616 12.2946C10.2075 12.27 10.5588 12.2 10.8842 12.074C11.1728 11.9613 11.3828 11.8273 11.6042 11.606C11.8288 11.3813 11.9628 11.1726 12.0735 10.886C12.2002 10.5573 12.2708 10.206 12.2948 9.68598C12.3295 8.94998 12.3335 8.69265 12.3335 6.99998C12.3335 5.35065 12.3288 5.08131 12.2948 4.31398C12.2702 3.79265 12.2002 3.44065 12.0735 3.11531C11.973 2.84331 11.8129 2.59729 11.6048 2.39531C11.4033 2.18654 11.1572 2.02609 10.8848 1.92598C10.5582 1.79931 10.2075 1.72931 9.68616 1.70531C8.95016 1.67065 8.69283 1.66665 7.00016 1.66665ZM7.00016 0.333313C8.8115 0.333313 9.0375 0.33998 9.74816 0.373313C10.4582 0.406646 10.9415 0.51798 11.3668 0.683313C11.8068 0.852646 12.1775 1.08198 12.5482 1.45198C12.8872 1.78524 13.1495 2.18837 13.3168 2.63331C13.4815 3.05798 13.5935 3.54198 13.6268 4.25198C13.6582 4.96265 13.6668 5.18865 13.6668 6.99998C13.6668 8.81131 13.6602 9.03731 13.6268 9.74798C13.5935 10.458 13.4815 10.9413 13.3168 11.3666C13.1499 11.8118 12.8876 12.2151 12.5482 12.548C12.2148 12.8869 11.8117 13.1491 11.3668 13.3166C10.9422 13.4813 10.4582 13.5933 9.74816 13.6266C9.0375 13.658 8.8115 13.6666 7.00016 13.6666C5.18883 13.6666 4.96283 13.66 4.25216 13.6266C3.54216 13.5933 3.05883 13.4813 2.6335 13.3166C2.18838 13.1496 1.78518 12.8873 1.45216 12.548C1.1131 12.2148 0.850784 11.8116 0.683496 11.3666C0.518163 10.942 0.406829 10.458 0.373496 9.74798C0.342163 9.03731 0.333496 8.81131 0.333496 6.99998C0.333496 5.18865 0.340163 4.96265 0.373496 4.25198C0.406829 3.54131 0.518163 3.05865 0.683496 2.63331C0.85032 2.1881 1.1127 1.78486 1.45216 1.45198C1.78528 1.1128 2.18845 0.850466 2.6335 0.683313C3.05883 0.51798 3.5415 0.406646 4.25216 0.373313C4.96283 0.34198 5.18883 0.333313 7.00016 0.333313Z" fill="#FCFCFC"/>
</svg>
