<svg width="14" height="14" viewBox="0 0 14 14" fill="none" xmlns="http://www.w3.org/2000/svg">
	<path d="M11.1291 9.24292L10.1864 8.29891L11.1291 7.35625C11.4408 7.04721 11.6885 6.67965 11.8578 6.27465C12.0271 5.86965 12.1148 5.43519 12.1157 4.99623C12.1167 4.55726 12.0309 4.12242 11.8634 3.71669C11.6958 3.31095 11.4498 2.9423 11.1394 2.6319C10.829 2.32151 10.4604 2.07547 10.0546 1.90793C9.64889 1.74039 9.21406 1.65464 8.77509 1.6556C8.33612 1.65656 7.90167 1.74422 7.49667 1.91353C7.09167 2.08285 6.7241 2.33049 6.41507 2.64225L5.4724 3.58558L4.52907 2.64292L5.47307 1.70025C6.34828 0.825034 7.53533 0.333344 8.77307 0.333344C10.0108 0.333344 11.1979 0.825034 12.0731 1.70025C12.9483 2.57546 13.44 3.76251 13.44 5.00025C13.44 6.23799 12.9483 7.42503 12.0731 8.30025L11.1297 9.24292H11.1291ZM9.24373 11.1282L8.3004 12.0709C7.42519 12.9461 6.23814 13.4378 5.0004 13.4378C3.76266 13.4378 2.57562 12.9461 1.7004 12.0709C0.825187 11.1957 0.333496 10.0087 0.333496 8.77092C0.333496 7.53317 0.825187 6.34613 1.7004 5.47092L2.64373 4.52825L3.5864 5.47225L2.64373 6.41491C2.33198 6.72395 2.08434 7.09152 1.91502 7.49652C1.7457 7.90152 1.65805 8.33597 1.65709 8.77494C1.65613 9.21391 1.74188 9.64874 1.90942 10.0545C2.07696 10.4602 2.32299 10.8289 2.63339 11.1393C2.94379 11.4497 3.31244 11.6957 3.71817 11.8632C4.12391 12.0308 4.55874 12.1165 4.99771 12.1156C5.43668 12.1146 5.87113 12.0269 6.27613 11.8576C6.68113 11.6883 7.0487 11.4407 7.35773 11.1289L8.3004 10.1862L9.24373 11.1289V11.1282ZM8.77173 4.05692L9.71507 5.00025L5.00107 9.71358L4.05773 8.77092L8.77173 4.05758V4.05692Z" fill="#FCFCFC" />
</svg>
