<svg width="15" height="12" viewBox="0 0 15 12" fill="none" xmlns="http://www.w3.org/2000/svg">
<path d="M10.2002 1.69997C9.69349 1.69989 9.20702 1.89872 8.84545 2.25369C8.48387 2.60865 8.2761 3.09137 8.26684 3.59797L8.24818 4.64797C8.24708 4.70435 8.23408 4.75986 8.21003 4.81086C8.18598 4.86186 8.15141 4.90719 8.1086 4.94389C8.0658 4.9806 8.01571 5.00783 7.96164 5.02381C7.90757 5.0398 7.85073 5.04417 7.79484 5.03664L6.75418 4.89531C5.38484 4.70864 4.07284 4.07797 2.81418 3.02931C2.41551 5.23597 3.19418 6.76464 5.06951 7.94397L6.23418 8.67597C6.28951 8.71075 6.33549 8.75856 6.36807 8.81521C6.40066 8.87187 6.41887 8.93564 6.42111 9.00096C6.42334 9.06628 6.40954 9.13115 6.3809 9.1899C6.35227 9.24865 6.30967 9.29949 6.25684 9.33797L5.19551 10.1133C5.82684 10.1526 6.42618 10.1246 6.92351 10.026C10.0688 9.39797 12.1602 7.03131 12.1602 3.12731C12.1602 2.80864 11.4855 1.69997 10.2002 1.69997ZM6.93351 3.57331C6.94515 2.93067 7.1461 2.30575 7.51122 1.77679C7.87633 1.24782 8.38938 0.838321 8.98612 0.599552C9.58286 0.360784 10.2368 0.303361 10.866 0.434473C11.4952 0.565585 12.0718 0.879405 12.5235 1.33664C12.9975 1.33331 13.4008 1.45331 14.3028 0.906641C14.0795 1.99997 13.9695 2.47464 13.4935 3.12731C13.4935 8.22197 10.3622 10.6993 7.18484 11.3333C5.00618 11.768 1.83818 11.054 0.930176 10.106C1.39284 10.07 3.27284 9.86797 4.35951 9.07264C3.44018 8.46664 -0.219158 6.31331 2.18551 0.523975C3.31418 1.84197 4.45884 2.73931 5.61884 3.21531C6.39084 3.53197 6.58018 3.52531 6.93418 3.57397L6.93351 3.57331Z" fill="#FCFCFC"/>
</svg>
