<svg width="14" height="12" viewBox="0 0 14 12" fill="none" xmlns="http://www.w3.org/2000/svg">
<path d="M12.0708 2.66335C12.0202 2.46469 11.8762 2.31469 11.7115 2.26869C11.4202 2.18669 10.0002 2.00002 7.00016 2.00002C4.00016 2.00002 2.5815 2.18669 2.2875 2.26869C2.12483 2.31402 1.98083 2.46402 1.9295 2.66335C1.85683 2.94602 1.66683 4.13069 1.66683 6.00002C1.66683 7.86935 1.85683 9.05335 1.9295 9.33735C1.98016 9.53535 2.12416 9.68535 2.28816 9.73069C2.5815 9.81335 4.00016 10 7.00016 10C10.0002 10 11.4195 9.81335 11.7128 9.73135C11.8755 9.68602 12.0195 9.53602 12.0708 9.33669C12.1435 9.05402 12.3335 7.86669 12.3335 6.00002C12.3335 4.13335 12.1435 2.94669 12.0708 2.66335ZM13.3622 2.33202C13.6668 3.52002 13.6668 6.00002 13.6668 6.00002C13.6668 6.00002 13.6668 8.48002 13.3622 9.66802C13.1928 10.3247 12.6975 10.8414 12.0702 11.016C10.9308 11.3334 7.00016 11.3334 7.00016 11.3334C7.00016 11.3334 3.0715 11.3334 1.93016 11.016C1.30016 10.8387 0.805496 10.3227 0.638163 9.66802C0.333496 8.48002 0.333496 6.00002 0.333496 6.00002C0.333496 6.00002 0.333496 3.52002 0.638163 2.33202C0.807496 1.67535 1.30283 1.15869 1.93016 0.98402C3.0715 0.666687 7.00016 0.666687 7.00016 0.666687C7.00016 0.666687 10.9308 0.666687 12.0702 0.98402C12.7002 1.16135 13.1948 1.67735 13.3622 2.33202ZM5.66683 8.33335V3.66669L9.66683 6.00002L5.66683 8.33335Z" fill="#FCFCFC"/>
</svg>
